# xmcd CD database file
#
# Track frame offsets:
#	150
#	26884
#	53028
#	74437
#	98993
#	120521
#	140600
#	162309
#	179577
#	206276
#	226101
#	249193
#	271262
#	301166
#	317427
#
# Disc length: 4467 seconds
#
# Revision: 0
# Processed by: cddbd v1.5.2PL0 Copyright (c) Steve Scherf et al.
# Submitted via: CDex 1.70beta2
#
DISCID=c711710f
DTITLE=Various Artist - Next Jazz Fusion Vol.1
DYEAR=2002
DGENRE=Jazz
TTITLE0=Alex Bugnon feat Kussey Love - Yearning for your love
TTITLE1=Fred Lowars - Betch don't know
TTITLE2=Norman Brown - That's the way love goes
TTITLE3=Streetwize - Pullin me back
TTITLE4=Kevin Toney - Ariel's dream
TTITLE5=Brian Simpson - It's all good
TTITLE6=Najee - Come what may
TTITLE7=Candy Defler - Pee Wee
TTITLE8=Dave Koz feat Phil Perry - Tender is the night
TTITLE9=Brenda Russel - Piano in the dark
TTITLE10=Gerald Albright feat Will Downing - Just 2 B with you
TTITLE11=Jonathan Butler - Love songs, candle light and you
TTITLE12=Quincy Jones - Sax in the garden
TTITLE13=Brenda Russel - Piano in the dark
TTITLE14=Jimmy Sommers feat Brian Cubertson - Kickin it
EXTD=YEAR: 2002
EXTT0=
EXTT1=
EXTT2=
EXTT3=
EXTT4=
EXTT5=
EXTT6=
EXTT7=
EXTT8=
EXTT9=
EXTT10=
EXTT11=
EXTT12=
EXTT13=
EXTT14=
PLAYORDER=
